<?xml version="1.0" encoding="utf-8"?>
<!-- Generator: Adobe Illustrator 16.0.0, SVG Export Plug-In . SVG Version: 6.00 Build 0)  -->
<!DOCTYPE svg [
	<!ENTITY ns_flows "http://ns.adobe.com/Flows/1.0/">
	<!ENTITY ns_extend "http://ns.adobe.com/Extensibility/1.0/">
	<!ENTITY ns_ai "http://ns.adobe.com/AdobeIllustrator/10.0/">
	<!ENTITY ns_graphs "http://ns.adobe.com/Graphs/1.0/">
]>
<svg version="1.2" baseProfile="tiny" xmlns:x="&ns_extend;" xmlns:i="&ns_ai;" xmlns:graph="&ns_graphs;"
	 xmlns="http://www.w3.org/2000/svg" xmlns:xlink="http://www.w3.org/1999/xlink" xmlns:a="http://ns.adobe.com/AdobeSVGViewerExtensions/3.0/"
	 x="0px" y="0px" width="256px" height="256px" viewBox="0 0 256 256" xml:space="preserve">
<g>
	<path d="M56.567,32.45C43.824,32.45,33.5,42.774,33.5,55.517c0,12.735,10.324,23.059,23.067,23.059
		c12.735,0,23.059-10.324,23.059-23.059C79.625,42.774,69.302,32.45,56.567,32.45z"/>
</g>
<g>
	<path d="M127.95,32.45c-12.735,0-23.065,10.324-23.065,23.067c0,12.735,10.331,23.059,23.065,23.059
		c12.743,0,23.059-10.324,23.059-23.059C151.009,42.774,140.693,32.45,127.95,32.45z"/>
</g>
<g>
	<path d="M200.441,32.45c-12.743,0-23.075,10.324-23.075,23.067c0,12.735,10.332,23.059,23.075,23.059
		c12.727,0,23.059-10.324,23.059-23.059C223.5,42.774,213.168,32.45,200.441,32.45z"/>
</g>
<g>
	<path d="M56.567,104.933C43.824,104.933,33.5,115.265,33.5,128c0,12.743,10.324,23.059,23.067,23.059
		c12.735,0,23.059-10.315,23.059-23.059C79.625,115.265,69.302,104.933,56.567,104.933z"/>
</g>
<g>
	<path d="M127.95,104.933c-12.735,0-23.065,10.332-23.065,23.067c0,12.743,10.331,23.059,23.065,23.059
		c12.743,0,23.059-10.315,23.059-23.059C151.009,115.265,140.693,104.933,127.95,104.933z"/>
</g>
<g>
	<path d="M200.441,104.933c-12.743,0-23.075,10.332-23.075,23.067c0,12.743,10.332,23.059,23.075,23.059
		c12.727,0,23.059-10.315,23.059-23.059C223.5,115.265,213.168,104.933,200.441,104.933z"/>
</g>
<g>
	<path d="M56.567,177.416c-12.743,0-23.067,10.332-23.067,23.075c0,12.727,10.324,23.059,23.067,23.059
		c12.735,0,23.059-10.332,23.059-23.059C79.625,187.748,69.302,177.416,56.567,177.416z"/>
</g>
<g>
	<path d="M127.95,177.416c-12.735,0-23.065,10.332-23.065,23.075c0,12.727,10.331,23.059,23.065,23.059
		c12.743,0,23.059-10.332,23.059-23.059C151.009,187.748,140.693,177.416,127.95,177.416z"/>
</g>
<g>
	<path d="M200.441,177.416c-12.743,0-23.075,10.332-23.075,23.075c0,12.727,10.332,23.059,23.075,23.059
		c12.727,0,23.059-10.332,23.059-23.059C223.5,187.748,213.168,177.416,200.441,177.416z"/>
</g>
</svg>
